<svg width="24" height="24" viewBox="0 0 24 24" fill="none" xmlns="http://www.w3.org/2000/svg">
<path fill-rule="evenodd" clip-rule="evenodd" d="M9.00002 7C8.73731 6.99993 8.47716 7.05161 8.23443 7.15209C7.99169 7.25256 7.77112 7.39986 7.58531 7.58558C7.3995 7.7713 7.25209 7.99179 7.15149 8.23448C7.0509 8.47717 6.99909 8.73729 6.99902 9C6.99896 9.26271 7.05064 9.52286 7.15111 9.7656C7.25158 10.0083 7.39889 10.2289 7.5846 10.4147C7.77032 10.6005 7.99082 10.7479 8.2335 10.8485C8.47619 10.9491 8.73631 11.0009 8.99902 11.001C9.52959 11.0011 10.0385 10.7905 10.4137 10.4154C10.789 10.0403 10.9999 9.53157 11 9.001C11.0002 8.47043 10.7895 7.96155 10.4144 7.58629C10.0394 7.21103 9.53059 7.00013 9.00002 7ZM8.00002 9C8.00002 8.73478 8.10538 8.48043 8.29292 8.29289C8.48045 8.10536 8.73481 8 9.00002 8C9.26524 8 9.51959 8.10536 9.70713 8.29289C9.89467 8.48043 10 8.73478 10 9C10 9.26522 9.89467 9.51957 9.70713 9.70711C9.51959 9.89464 9.26524 10 9.00002 10C8.73481 10 8.48045 9.89464 8.29292 9.70711C8.10538 9.51957 8.00002 9.26522 8.00002 9Z" fill="black"/>
<path fill-rule="evenodd" clip-rule="evenodd" d="M7.5 5C6.83696 5 6.20107 5.26339 5.73223 5.73223C5.26339 6.20107 5 6.83696 5 7.5V16.5C5 17.163 5.26339 17.7989 5.73223 18.2678C6.20107 18.7366 6.83696 19 7.5 19H16.5C17.163 19 17.7989 18.7366 18.2678 18.2678C18.7366 17.7989 19 17.163 19 16.5V7.5C19 6.83696 18.7366 6.20107 18.2678 5.73223C17.7989 5.26339 17.163 5 16.5 5H7.5ZM18 7.5V14.29L14.85 11.14C14.7562 11.0463 14.6291 10.9936 14.4965 10.9936C14.3639 10.9936 14.2368 11.0463 14.143 11.14L7.303 17.98C6.9411 17.9327 6.60871 17.7555 6.36772 17.4814C6.12673 17.2073 5.99356 16.855 5.993 16.49V7.49C5.993 7.09218 6.15104 6.71064 6.43234 6.42934C6.71364 6.14804 7.09518 5.99 7.493 5.99H16.493C16.8908 5.99 17.2724 6.14804 17.5537 6.42934C17.835 6.71064 17.993 7.09218 17.993 7.49L18 7.5ZM16.5 18H8.71L14.5 12.21L18 15.71V16.503C18 16.9008 17.842 17.2824 17.5607 17.5637C17.2794 17.845 16.8978 18.003 16.5 18.003V18Z" fill="black"/>
</svg>
