<svg width="24" height="24" viewBox="0 0 24 24" fill="none" xmlns="http://www.w3.org/2000/svg">
<path d="M12.0005 5.00088C5.69349 5.00133 2.63389 10.6845 2.09097 11.8096C2.06195 11.8694 2.04688 11.9351 2.04689 12.0016C2.04689 12.0681 2.06197 12.1337 2.091 12.1936C2.63308 13.3185 5.69349 19.0013 12.0015 19.0009C18.3095 19.0004 21.3681 13.3172 21.911 12.1922C21.94 12.1323 21.9551 12.0667 21.9551 12.0002C21.9551 11.9337 21.94 11.868 21.911 11.8082C21.3689 10.6832 18.3085 5.00043 12.0005 5.00088Z" stroke="black" stroke-width="1.7" stroke-linecap="round" stroke-linejoin="round"/>
<path d="M12.0014 15.0009C13.6583 15.0008 15.0013 13.6575 15.0012 12.0007C15.0011 10.3438 13.6578 9.00077 12.001 9.00089C10.3441 9.001 9.00107 10.3442 9.00119 12.0011C9.00131 13.658 10.3446 15.001 12.0014 15.0009Z" stroke="black" stroke-width="1.6" stroke-linecap="round" stroke-linejoin="round"/>
</svg>
