<svg width="24" height="24" viewBox="0 0 24 24" fill="none" xmlns="http://www.w3.org/2000/svg">
<circle cx="9.8016" cy="13.5969" r="7.69545" stroke="black" stroke-width="1.6"/>
<path d="M14.1978 1.90759C18.8893 1.90771 22.6934 5.71123 22.6938 10.4027L22.6821 10.8402C22.5571 13.3069 21.3779 15.4944 19.5884 16.9662C19.8337 16.0912 19.9682 15.1695 19.9683 14.2162C19.9683 14.2032 19.9673 14.1901 19.9673 14.1771C20.6781 13.0926 21.0933 11.7962 21.0933 10.4027C21.0929 6.59488 18.0056 3.50732 14.1978 3.5072C13.1532 3.50725 12.1631 3.74086 11.2759 4.15662C10.7945 4.08668 10.302 4.04919 9.80127 4.04919C9.34627 4.04921 8.89865 4.08208 8.45947 4.14001C9.9711 2.75435 11.9855 1.90768 14.1978 1.90759Z" fill="black"/>
<path d="M12.9082 12.9333C12.9082 14.3986 11.9095 14.884 10.5095 14.912H9.1842V17.4133H7.7002V10.6H10.5002C11.3869 10.6 12.9082 10.824 12.9082 12.9333ZM9.1842 14.0346H10.3695C11.1069 14.0346 11.5269 13.6986 11.5269 12.952C11.5269 12.2053 11.2095 11.8506 10.4535 11.8413H9.1842V14.0346Z" fill="black"/>
</svg>
