<svg width="24" height="24" viewBox="0 0 24 24" fill="none" xmlns="http://www.w3.org/2000/svg">
<path d="M7.84723 18.8746L12.0011 16.2428L16.1553 18.9086L15.067 13.9227L18.7263 10.5985L13.9128 10.1487L12.0003 5.43981L10.0885 10.1143L5.2751 10.5648L8.93484 13.9232L7.84723 18.8746ZM12.0012 17.8729L7.21438 20.9092C7.07372 20.9822 6.94317 21.0117 6.82272 20.9979C6.70316 20.9831 6.58666 20.9397 6.47325 20.8677C6.35895 20.7939 6.27279 20.6895 6.21475 20.5547C6.15672 20.4199 6.15143 20.2726 6.19889 20.1129L7.47239 14.4205L3.25874 10.5843C3.14005 10.4828 3.0618 10.3614 3.02398 10.2201C2.98617 10.0788 2.99451 9.94355 3.04901 9.81428C3.10351 9.68501 3.17603 9.57882 3.26658 9.49571C3.358 9.41538 3.48108 9.36089 3.63581 9.33226L9.19559 8.82218L11.3632 3.43161C11.423 3.27925 11.5091 3.16937 11.6217 3.10196C11.7342 3.03455 11.8603 3.00084 12.0001 3.00083C12.1399 3.00082 12.2665 3.03451 12.3799 3.1019C12.4934 3.1693 12.5791 3.27917 12.6371 3.43152L14.8055 8.82178L20.364 9.33106C20.5196 9.35875 20.6432 9.41368 20.7346 9.49585C20.8261 9.5771 20.899 9.68281 20.9535 9.813C21.0072 9.94226 21.0151 10.0775 20.9773 10.2188C20.9395 10.3601 20.8613 10.4815 20.7426 10.5831L16.5295 14.4198L17.8038 20.1121C17.8531 20.27 17.8482 20.4168 17.7893 20.5525C17.7304 20.6882 17.6439 20.7926 17.5296 20.8655C17.417 20.9394 17.3006 20.9833 17.1801 20.9971C17.0605 21.011 16.9304 20.9815 16.7898 20.9085L12.0012 17.8729Z" fill="black"/>
</svg>
