<svg width="24" height="24" viewBox="0 0 24 24" fill="none" xmlns="http://www.w3.org/2000/svg">
<path d="M3.95166 10.6861L13.5526 20.287L3.95166 10.6861ZM8.75127 15.4874L3.45215 20.7865L8.75127 15.4874ZM14.5483 3.21338L20.5479 9.21459L18.2889 9.37413L11.74 18.4745L5.73879 12.4749L14.3854 5.47571L14.5483 3.21338Z" fill="#F2BA62"/>
<path d="M2.92182 20.2562C2.62893 20.5491 2.62893 21.024 2.92182 21.3169C3.21471 21.6098 3.68959 21.6098 3.98248 21.3169L3.45215 20.7865L2.92182 20.2562ZM14.5483 3.21338L15.0787 2.68312C14.8712 2.4755 14.5616 2.40808 14.2865 2.51058C14.0114 2.61309 13.8214 2.86668 13.8003 3.15951L14.5483 3.21338ZM20.5479 9.21459L20.6007 9.96273C20.8937 9.94204 21.1476 9.75221 21.2504 9.47705C21.3532 9.2019 21.2859 8.89206 21.0783 8.68434L20.5479 9.21459ZM18.2889 9.37413L18.2361 8.62599C18.0139 8.64168 17.8102 8.75528 17.6802 8.93604L18.2889 9.37413ZM11.74 18.4745L11.2097 19.0049C11.3653 19.1604 11.5813 19.2398 11.8006 19.222C12.0199 19.2042 12.2203 19.0911 12.3488 18.9125L11.74 18.4745ZM5.73879 12.4749L5.2669 11.892C5.10166 12.0258 5.00095 12.2234 4.98981 12.4357C4.97868 12.648 5.05818 12.855 5.20853 13.0053L5.73879 12.4749ZM14.3854 5.47571L14.8573 6.05866C15.0186 5.9281 15.1186 5.73656 15.1335 5.52959L14.3854 5.47571ZM3.95166 10.6861L3.42133 11.2164L13.0223 20.8174L13.5526 20.287L14.0829 19.7567L4.48199 10.1558L3.95166 10.6861ZM8.75127 15.4874L8.22094 14.9571L2.92182 20.2562L3.45215 20.7865L3.98248 21.3169L9.2816 16.0178L8.75127 15.4874ZM14.5483 3.21338L14.0179 3.74363L20.0175 9.74485L20.5479 9.21459L21.0783 8.68434L15.0787 2.68312L14.5483 3.21338ZM20.5479 9.21459L20.495 8.46645L18.2361 8.62599L18.2889 9.37413L18.3418 10.1223L20.6007 9.96273L20.5479 9.21459ZM18.2889 9.37413L17.6802 8.93604L11.1312 18.0364L11.74 18.4745L12.3488 18.9125L18.8977 9.81221L18.2889 9.37413ZM11.74 18.4745L12.2703 17.9441L6.26904 11.9445L5.73879 12.4749L5.20853 13.0053L11.2097 19.0049L11.74 18.4745ZM5.73879 12.4749L6.21067 13.0579L14.8573 6.05866L14.3854 5.47571L13.9135 4.89277L5.2669 11.892L5.73879 12.4749ZM14.3854 5.47571L15.1335 5.52959L15.2964 3.26725L14.5483 3.21338L13.8003 3.15951L13.6373 5.42184L14.3854 5.47571Z" fill="black"/>
</svg>
