<svg width="24" height="24" viewBox="0 0 24 24" fill="none" xmlns="http://www.w3.org/2000/svg">
<path d="M11.9998 21.4021C9.50616 21.4021 7.1147 20.4115 5.35147 18.6483C3.58823 16.8851 2.59766 14.4936 2.59766 12C2.59766 9.50641 3.58823 7.11495 5.35147 5.35171C7.1147 3.58848 9.50616 2.5979 11.9998 2.5979C14.4933 2.5979 16.8848 3.58848 18.648 5.35171C20.4113 7.11495 21.4019 9.50641 21.4019 12C21.4019 14.4936 20.4113 16.8851 18.648 18.6483C16.8848 20.4115 14.4933 21.4021 11.9998 21.4021ZM11.9998 4.36079C9.97371 4.36079 8.03065 5.16564 6.59802 6.59827C5.16539 8.03089 4.36055 9.97396 4.36055 12C4.36055 14.026 5.16539 15.9691 6.59802 17.4017C8.03065 18.8344 9.97371 19.6392 11.9998 19.6392C14.0258 19.6392 15.9689 18.8344 17.4015 17.4017C18.8341 15.9691 19.639 14.026 19.639 12C19.639 9.97396 18.8341 8.03089 17.4015 6.59827C15.9689 5.16564 14.0258 4.36079 11.9998 4.36079ZM11.9998 15.5258C11.0647 15.5258 10.1679 15.1543 9.50665 14.4931C8.84543 13.8319 8.47397 12.9351 8.47397 12C8.47397 11.0649 8.84543 10.1681 9.50665 9.50689C10.1679 8.84568 11.0647 8.47421 11.9998 8.47421C12.9349 8.47421 13.8317 8.84568 14.4929 9.50689C15.1541 10.1681 15.5255 11.0649 15.5255 12C15.5255 12.9351 15.1541 13.8319 14.4929 14.4931C13.8317 15.1543 12.9349 15.5258 11.9998 15.5258Z" fill="#D4C3F2"/>
</svg>
