<svg width="24" height="24" viewBox="0 0 24 24" fill="none" xmlns="http://www.w3.org/2000/svg">
<path d="M12.4639 3.9707C14.4321 4.08792 16.2893 4.92228 17.6836 6.31641C19.0779 7.71066 19.913 9.56785 20.0303 11.5361C20.1475 13.5043 19.539 15.4472 18.3203 16.9971C17.1014 18.5469 15.3564 19.5962 13.416 19.9463C11.4755 20.2963 9.47368 19.9229 7.79004 18.8965C7.55779 18.755 7.27595 18.7191 7.01562 18.7979L4.41602 19.583L5.20215 16.9844C5.28079 16.724 5.24508 16.4422 5.10352 16.21C4.07737 14.5265 3.70378 12.5253 4.05371 10.585C4.40372 8.64451 5.45308 6.8996 7.00293 5.68066C8.55275 4.4618 10.4957 3.85358 12.4639 3.9707Z" stroke="black" stroke-width="1.91209" stroke-linecap="round" stroke-linejoin="round"/>
</svg>
