<svg width="24" height="24" viewBox="0 0 24 24" fill="none" xmlns="http://www.w3.org/2000/svg">
<path d="M13.2997 16.0141C13.2997 16.3587 13.1629 16.6892 12.9192 16.9328C12.6756 17.1765 12.3451 17.3133 12.0005 17.3133C11.656 17.3133 11.3255 17.1765 11.0819 16.9328C10.8382 16.6892 10.7013 16.3587 10.7013 16.0141C10.7013 15.6696 10.8382 15.3391 11.0819 15.0955C11.3255 14.8518 11.656 14.7149 12.0005 14.7149C12.3451 14.7149 12.6756 14.8518 12.9192 15.0955C13.1629 15.3391 13.2997 15.6696 13.2997 16.0141ZM11.1344 12.1165C11.1344 12.3463 11.2257 12.5666 11.3881 12.729C11.5505 12.8914 11.7708 12.9827 12.0005 12.9827C12.2303 12.9827 12.4506 12.8914 12.613 12.729C12.7754 12.5666 12.8667 12.3463 12.8667 12.1165V7.78587C12.8667 7.55615 12.7754 7.33585 12.613 7.17342C12.4506 7.01098 12.2303 6.91973 12.0005 6.91973C11.7708 6.91973 11.5505 7.01098 11.3881 7.17342C11.2257 7.33585 11.1344 7.55615 11.1344 7.78587V12.1165ZM10.1106 2.82638C10.2986 2.49024 10.5728 2.21031 10.905 2.01546C11.2373 1.82061 11.6154 1.7179 12.0005 1.7179C12.3857 1.7179 12.7638 1.82061 13.096 2.01546C13.4283 2.21031 13.7025 2.49024 13.8905 2.82638L22.1187 17.5541C22.3029 17.8835 22.3978 18.2554 22.394 18.6328C22.3901 19.0102 22.2877 19.38 22.0969 19.7056C21.9061 20.0312 21.6335 20.3013 21.3061 20.4891C20.9787 20.6769 20.608 20.7758 20.2306 20.7761H3.76534C3.38779 20.7761 3.0168 20.6774 2.68918 20.4897C2.36157 20.3021 2.08871 20.032 1.89769 19.7064C1.70667 19.3807 1.60412 19.0107 1.60021 18.6332C1.59631 18.2557 1.69119 17.8837 1.87543 17.5541L10.1106 2.82638ZM12.3782 3.67173C12.3407 3.60425 12.2858 3.54802 12.2192 3.50888C12.1527 3.46974 12.0769 3.4491 11.9997 3.4491C11.9225 3.4491 11.8467 3.46974 11.7801 3.50888C11.7136 3.54802 11.6587 3.60425 11.6212 3.67173L3.39117 18.3995C3.35433 18.4654 3.33536 18.5397 3.33612 18.6152C3.33689 18.6907 3.35737 18.7647 3.39553 18.8298C3.4337 18.8949 3.48822 18.9489 3.55369 18.9865C3.61917 19.024 3.69332 19.0438 3.7688 19.0439H20.2306C20.306 19.0438 20.3802 19.024 20.4457 18.9865C20.5111 18.9489 20.5657 18.8949 20.6038 18.8298C20.642 18.7647 20.6625 18.6907 20.6632 18.6152C20.664 18.5397 20.645 18.4654 20.6082 18.3995L12.3782 3.67173Z" fill="black"/>
</svg>
