<svg width="110" height="205" viewBox="0 0 110 205" fill="none" xmlns="http://www.w3.org/2000/svg">
<path d="M76.3237 6.13635C91.7125 -0.156521 104.14 -1.08021 108.357 4.87659C115.046 14.327 98.535 37.5134 71.478 56.6656C62.9412 62.7084 54.3739 67.6259 46.436 71.2321L39.2964 67.7487C47.1099 63.8914 55.9249 58.6231 64.8931 52.275C89.8123 34.6359 106.48 15.3444 102.122 9.18518C99.8466 5.97168 92.2962 6.96955 82.0542 11.1647C80.3118 9.31117 78.3932 7.62603 76.3237 6.13635Z" fill="#FFE37D"/>
<path d="M91.4116 43.0265C90.9123 48.8135 89.1009 54.2236 86.2759 58.9611L54.4868 75.1583L49.4634 72.7081C54.5659 70.2016 59.8204 67.2642 65.0835 63.9269C75.5338 57.3002 84.5437 50.0358 91.4116 43.0265ZM53.9985 2.19836C70.3645 2.19836 84.2827 12.6677 89.4282 27.2736C82.8654 34.8113 74.0329 42.7616 63.644 50.1154C54.0392 56.9141 44.3952 62.2886 35.6528 65.9728L22.0894 59.3575L22.0317 59.4738C18.4889 53.7423 16.4419 46.988 16.4419 39.755C16.4421 19.0132 33.2567 2.19854 53.9985 2.19836Z" fill="#9B71E2"/>
<path d="M2.34937 55.8783C3.15415 55.7411 4.14969 56.2004 6.1394 57.1176L52.1849 78.3402C52.8341 78.6394 53.1587 78.789 53.4969 78.848C53.7967 78.9003 54.1032 78.9003 54.403 78.848C54.7412 78.789 55.0658 78.6394 55.715 78.3402L101.702 57.1449C103.692 56.2278 104.687 55.7684 105.492 55.9056C106.195 56.0256 106.818 56.426 107.221 57.014C107.683 57.6874 107.683 58.7832 107.683 60.974V106.941L107.682 107.599C107.675 108.178 107.645 108.539 107.528 108.864C107.39 109.247 107.164 109.593 106.87 109.874C106.537 110.193 106.082 110.394 105.174 110.796L54.0487 133.423C54.0261 133.433 54.0115 133.456 54.0115 133.48C54.0115 133.526 53.965 133.556 53.9237 133.538L53.8636 133.511C53.8595 133.509 53.8549 133.509 53.8508 133.511L53.8461 133.513C53.8384 133.517 53.8295 133.511 53.8291 133.503C53.829 133.498 53.8262 133.494 53.822 133.492L2.66284 110.771C1.75612 110.368 1.30193 110.166 0.969482 109.848C0.675727 109.567 0.451181 109.221 0.313232 108.838C0.157248 108.405 0.156983 107.909 0.156982 106.917V60.9467C0.156982 58.756 0.157508 57.6601 0.618896 56.9867C1.02212 56.3985 1.64639 55.9982 2.34937 55.8783ZM6.21759 102.976C6.21757 103.968 6.21756 104.464 6.37361 104.897C6.51155 105.28 6.73626 105.626 7.03013 105.907C7.3626 106.226 7.81599 106.427 8.72279 106.83L42.0217 121.618C43.9975 122.496 44.9854 122.935 45.7829 122.791C46.4798 122.665 47.0967 122.264 47.4946 121.678C47.95 121.008 47.95 119.927 47.95 117.765V85.7633C47.95 84.7854 47.95 84.2964 47.7976 83.868C47.6629 83.4893 47.4434 83.1464 47.1559 82.8656C46.8306 82.5479 46.3865 82.3432 45.4984 81.9338L12.2002 66.5857C10.2105 65.6685 9.21564 65.21 8.41086 65.3472C7.70772 65.4671 7.0832 65.8669 6.67996 66.4553C6.21843 67.1287 6.2184 68.2241 6.21835 70.4151L6.21759 102.976ZM62.3429 81.9612C61.4548 82.3706 61.0107 82.5752 60.6854 82.8929C60.3979 83.1737 60.1784 83.5166 60.0437 83.8953C59.8914 84.3237 59.8914 84.8127 59.8914 85.7907V117.732C59.8914 119.891 59.8914 120.971 60.3461 121.641C60.7435 122.226 61.3598 122.628 62.0561 122.754C62.8529 122.899 63.8402 122.462 65.8147 121.588L99.1127 106.851C100.021 106.448 100.475 106.247 100.809 105.929C101.103 105.647 101.328 105.302 101.466 104.918C101.623 104.485 101.623 103.988 101.623 102.995V70.4426C101.623 68.2516 101.623 67.1561 101.161 66.4827C100.758 65.8943 100.134 65.4945 99.4304 65.3746C98.6256 65.2374 97.6307 65.6959 95.6409 66.6131L62.3429 81.9612Z" fill="#9B71E2"/>
<path d="M16.9556 174.175C16.8667 176.101 16.6444 178.19 16.2889 180.442L25.4 191.997L20.6 196.397L14.0222 187.597C12.7185 190.412 11.0593 192.575 9.04444 194.086C7.05926 195.597 4.85185 196.368 2.42222 196.397V189.775C4.73333 189.538 6.6 188.012 8.02222 185.197C9.44444 182.383 10.2593 178.709 10.4667 174.175H3.13333V167.953H10.4667V163.731H17.0444V167.953H23.9778V174.175H16.9556ZM32.6444 182.886V197.997H26.2444V163.864H32.6444V176.353H36.4667V182.886H32.6444ZM70.462 197.997H64.4175V163.864H70.462V197.997ZM61.9286 163.997V197.42H55.9286V180.753H52.3731V174.353H55.9286V163.997H61.9286ZM49.9731 164.753C49.9731 170.086 49.7212 174.62 49.2175 178.353L56.5953 193.42L51.3064 196.086L47.262 187.464C45.2175 193.242 42.1805 196.22 38.1509 196.397V189.553C39.9583 189.257 41.3657 186.886 42.3731 182.442C43.4101 177.997 43.9286 172.027 43.9286 164.531L49.9731 164.753ZM106.457 197.997H100.502V163.864H106.457V197.997ZM98.1017 163.997V197.42H92.2351V188.131H86.1906C84.9166 190.797 83.2721 192.842 81.2573 194.264C79.2425 195.657 77.0351 196.368 74.6351 196.397V190.086C77.0943 189.879 79.0351 188.501 80.4573 185.953C81.8795 183.405 82.5906 179.79 82.5906 175.109V170.753H74.6351V164.664H88.724V171.109H92.2351V163.997H98.1017ZM92.2351 177.375H88.6351C88.5462 178.768 88.3832 180.264 88.1462 181.864H92.2351V177.375Z" fill="#303030"/>
<path d="M11.8945 141.504V154.834H10.0928V148.169H8.84766V154.189H7.08984V141.724H8.84766V146.66H10.0928V141.504H11.8945ZM2.8125 142.983V149.941C3.88184 149.919 5.05371 149.824 6.34277 149.575L6.5332 151.187C4.74609 151.494 3.22266 151.582 1.8457 151.582H0.9375V142.983H2.8125ZM22.2006 142.72V144.229H21.3363V147.817C21.6879 147.788 22.0248 147.744 22.3471 147.7L22.4496 149.092C20.3842 149.487 17.6742 149.546 15.9896 149.531L15.7992 148.008H16.8832V144.229H16.0482V142.72H22.2006ZM27.7084 153.105V154.6H18.2748V150.381H20.1498V153.105H27.7084ZM27.3715 141.519V151.611H25.599V146.895H24.6176V151.172H22.8598V141.753H24.6176V145.371H25.599V141.519H27.3715ZM18.5971 147.979L19.6664 147.935V144.229H18.5971V147.979ZM36.2525 142.456V143.979H35.1539V147.437C35.7032 147.407 36.2452 147.363 36.7652 147.305L36.8971 148.667C34.1871 149.092 31.1842 149.15 28.8551 149.15L28.65 147.612L30.0855 147.598V143.979H29.0016V142.456H36.2525ZM39.5924 150.19V154.834H37.7174V151.685H30.4225V150.19H39.5924ZM39.5924 141.504V149.663H37.7174V141.504H39.5924ZM31.8727 147.583L33.3521 147.539V143.979H31.8727V147.583ZM45.2654 142.397C47.3748 142.383 48.9568 143.76 48.9568 145.664C48.9568 147.583 47.3748 148.945 45.2654 148.945C43.1561 148.945 41.5594 147.583 41.5594 145.664C41.5594 143.76 43.1561 142.383 45.2654 142.397ZM45.2654 144.009C44.2107 144.009 43.4051 144.624 43.4197 145.664C43.4051 146.719 44.2107 147.319 45.2654 147.319C46.3201 147.319 47.1258 146.719 47.1404 145.664C47.1258 144.624 46.3348 144.009 45.2654 144.009ZM52.1502 141.504V154.863H50.2898V141.504H52.1502ZM41.0027 150.615C43.3758 150.63 46.6717 150.586 49.5281 150.19L49.6746 151.538C46.7156 152.109 43.5516 152.139 41.2225 152.139L41.0027 150.615ZM62.4709 149.81C65.3859 149.81 67.217 150.732 67.2316 152.329C67.217 153.896 65.3859 154.834 62.4709 154.834C59.5852 154.834 57.7248 153.896 57.7248 152.329C57.7248 150.732 59.5852 149.81 62.4709 149.81ZM62.4709 151.201C60.6398 151.201 59.5852 151.582 59.5852 152.329C59.5852 153.047 60.6398 153.413 62.4709 153.413C64.302 153.413 65.3713 153.047 65.3713 152.329C65.3713 151.582 64.302 151.201 62.4709 151.201ZM67.1584 142.104V143.188C67.1584 144.243 67.1584 145.386 66.7775 146.763L64.9465 146.587C65.2395 145.378 65.2761 144.478 65.298 143.569H57.8566V142.104H67.1584ZM68.5939 147.451V148.96H56.4943V147.451H61.0354V145.122H62.8811V147.451H68.5939ZM74.0912 143.394C74.0766 145.063 75.0287 146.675 77.226 147.334L76.2885 148.799C74.7724 148.315 73.725 147.371 73.1244 146.147C72.5238 147.466 71.4398 148.499 69.8725 149.004L68.935 147.539C71.1615 146.821 72.143 145.093 72.143 143.394V142.119H74.0912V143.394ZM80.141 150.029V154.834H78.266V151.523H70.9711V150.029H80.141ZM80.141 141.504V149.458H78.266V141.504H80.141ZM96.6873 148.96V150.454H91.4725V154.819H89.6268V150.454H84.4852V148.96H96.6873ZM95.2225 142.148V147.524H85.9207V142.148H95.2225ZM87.7664 143.628V146.06H93.3621V143.628H87.7664ZM108.542 141.504V154.834H106.77V148.14H105.48V154.189H103.767V141.724H105.48V146.646H106.77V141.504H108.542ZM102.36 143.042V144.551H99.2695V150.234C100.559 150.227 101.701 150.161 102.99 149.927L103.122 151.45C101.496 151.758 100.075 151.802 98.3174 151.816H97.3945V143.042H102.36Z" fill="#8350DC"/>
</svg>
