<svg width="107" height="30" viewBox="0 0 107 30" fill="none" xmlns="http://www.w3.org/2000/svg">
<path d="M17.1099 1.37857C20.5668 -0.0350588 23.3585 -0.242409 24.3062 1.09537C25.8089 3.21836 22.1002 8.42765 16.022 12.7301C14.1042 14.0876 12.1792 15.1915 10.396 16.0016L8.79248 15.2184C10.5476 14.352 12.5281 13.1696 14.5425 11.7438C20.1407 7.78111 23.8851 3.44666 22.9058 2.06314C22.3944 1.34129 20.6977 1.56555 18.396 2.50845C18.0046 2.09227 17.5747 1.71308 17.1099 1.37857Z" fill="#FFE37D"/>
<path d="M20.498 9.6676C20.3855 10.9677 19.9788 12.1825 19.3438 13.2467L12.2061 16.8834L11.0781 16.3326C12.2238 15.7698 13.4033 15.1102 14.585 14.361C16.9317 12.8729 18.9553 11.2417 20.498 9.6676ZM12.0957 0.493774C15.7719 0.493904 18.8967 2.84584 20.0527 6.12659C18.5785 7.81962 16.5952 9.6057 14.2617 11.2574C12.1037 12.785 9.93669 13.9914 7.97266 14.819L4.92773 13.3336L4.91406 13.359C4.11854 12.0717 3.6582 10.5548 3.6582 8.9303C3.65839 4.27081 7.43617 0.493774 12.0957 0.493774Z" fill="#9B71E2"/>
<path d="M0.493164 12.5532C0.673879 12.5225 0.897141 12.6257 1.34375 12.8315L11.6895 17.5981C11.8353 17.6653 11.9082 17.6989 11.9842 17.7121C12.0515 17.7239 12.1204 17.7239 12.1877 17.7121C12.2637 17.6989 12.3366 17.6653 12.4824 17.5981L22.8125 12.8374C23.2594 12.6314 23.4833 12.5283 23.6641 12.5591C23.8217 12.5861 23.9612 12.6763 24.0518 12.8081C24.1553 12.9594 24.1562 13.2059 24.1562 13.6978V24.0239L24.1523 24.2876C24.148 24.3552 24.1385 24.4071 24.1211 24.4556C24.0901 24.5416 24.0397 24.6199 23.9736 24.6831C23.8989 24.7545 23.7963 24.7991 23.5928 24.8892L12.1068 29.9734C12.1018 29.9756 12.0986 29.9806 12.0986 29.986C12.0986 29.996 12.0883 30.0026 12.0792 29.9984L12.0661 29.9925C12.0651 29.992 12.0639 29.992 12.0629 29.9926L12.0619 29.9931C12.06 29.9942 12.0576 29.9929 12.0576 29.9906C12.0576 29.9895 12.0569 29.9885 12.0559 29.988L0.563477 24.8843C0.360158 24.794 0.257251 24.7486 0.182617 24.6772C0.116786 24.6141 0.0660845 24.5355 0.0351562 24.4497C0.000319288 24.3526 2.65103e-07 24.2412 0 24.019L0.000976562 13.6909C0.000976525 13.1995 0.00111168 12.9535 0.104492 12.8022C0.195082 12.6702 0.335338 12.5801 0.493164 12.5532ZM1.66692 22.9356C1.66695 23.1584 1.66696 23.2699 1.70202 23.3671C1.73301 23.4531 1.78349 23.5308 1.84951 23.594C1.92419 23.6655 2.02603 23.7107 2.22971 23.8012L9.09987 26.8524C9.54373 27.0495 9.76566 27.1481 9.94481 27.1157C10.1014 27.0874 10.24 26.9973 10.3294 26.8657C10.4316 26.7151 10.4316 26.4723 10.4316 25.9866V19.4615C10.4316 19.2418 10.4316 19.1319 10.3974 19.0357C10.3672 18.9506 10.3178 18.8735 10.2532 18.8105C10.1801 18.7391 10.0804 18.6931 9.88079 18.6012L3.00989 15.4352C2.56287 15.2292 2.33936 15.1262 2.15857 15.157C2.00062 15.184 1.86033 15.2738 1.76976 15.406C1.6661 15.5573 1.66613 15.8034 1.66618 16.2956L1.66692 22.9356ZM14.2755 18.607C14.0759 18.699 13.9761 18.7449 13.9031 18.8163C13.8384 18.8794 13.7891 18.9565 13.7589 19.0415C13.7246 19.1378 13.7247 19.2477 13.7247 19.4674L13.7254 25.98C13.7255 26.465 13.7255 26.7075 13.8277 26.8581C13.917 26.9896 14.0554 27.0797 14.2118 27.1081C14.3908 27.1406 14.6126 27.0424 15.0561 26.8461L21.9264 23.8048C22.1305 23.7144 22.2325 23.6693 22.3073 23.5977C22.3735 23.5345 22.4241 23.4568 22.4551 23.3707C22.4902 23.2733 22.4902 23.1617 22.4902 22.9386V16.3013C22.4902 15.8091 22.4902 15.5631 22.3866 15.4118C22.296 15.2796 22.1557 15.1898 21.9978 15.1628C21.817 15.132 21.5935 15.235 21.1465 15.4409L14.2755 18.607Z" fill="#9B71E2"/>
<path d="M43.81 10.3822C43.7478 11.7304 43.5922 13.1926 43.3433 14.7689L49.7211 22.8578L46.3611 25.9378L41.7567 19.7778C40.8441 21.7481 39.6826 23.2622 38.2722 24.32C36.8826 25.3778 35.3374 25.917 33.6367 25.9378V21.3022C35.2544 21.1363 36.5611 20.0681 37.5567 18.0978C38.5522 16.1274 39.1226 13.5556 39.2678 10.3822H34.1344V6.02667H39.2678V3.07111H43.8722V6.02667H48.7256V10.3822H43.81ZM54.7922 16.48V27.0578H50.3122V3.16444H54.7922V11.9067H57.4678V16.48H54.7922ZM80.7045 27.0578H76.4734V3.16444H80.7045V27.0578ZM74.7312 3.25778V26.6533H70.5312V14.9867H68.0423V10.5067H70.5312V3.25778H74.7312ZM66.3623 3.78667C66.3623 7.52 66.186 10.6933 65.8334 13.3067L70.9978 23.8533L67.2956 25.72L64.4645 19.6844C63.0334 23.7289 60.9075 25.8133 58.0867 25.9378V21.1467C59.3519 20.9393 60.3371 19.28 61.0423 16.1689C61.7682 13.0578 62.1312 8.87852 62.1312 3.63111L66.3623 3.78667ZM105.341 27.0578H101.172V3.16444H105.341V27.0578ZM99.4923 3.25778V26.6533H95.3857V20.1511H91.1546C90.2627 22.0178 89.1116 23.4489 87.7012 24.4444C86.2908 25.4193 84.7457 25.917 83.0657 25.9378V21.52C84.7871 21.3748 86.1457 20.4104 87.1412 18.6267C88.1368 16.843 88.6346 14.3126 88.6346 11.0356V7.98667H83.0657V3.72444H92.9279V8.23555H95.3857V3.25778H99.4923ZM95.3857 12.6222H92.8657C92.8034 13.597 92.6894 14.6444 92.5234 15.7644H95.3857V12.6222Z" fill="#303030"/>
</svg>
